<svg version="1.2" xmlns="http://www.w3.org/2000/svg" viewBox="0 0 107 114" width="107" height="114">
	<title>image</title>
	<style>
		.s0 { fill: #3182b5 } 
	</style>
	<path id="Path 0" fill-rule="evenodd" class="s0" d="m55.4 27c3.6 0 5.2 0.6 7.1 2.5 1.4 1.4 2.8 3.9 3.3 5.5 0.6 2.6 1.2 3 4 3 1.7 0 3.2 0.3 3.2 0.8 0 0.4 0.9 9.7 2 20.7 1.1 11 2 20.1 2 20.3 0 0.1-9.7 0.2-43 0.2l0.1-3.3c0-1.7 0.8-11.1 3.4-38.2l3.8-0.2c3.2-0.3 3.7-0.6 3.8-2.9 0-1.4 1.3-3.9 2.9-5.5 2.3-2.4 3.7-2.9 7.4-2.9zm-7.4 9c0 1.8 0.7 2 7.5 2 5.3 0 7.5-0.4 7.5-1.2 0.1-0.7-0.8-2.5-2-4-1.5-2.1-2.8-2.8-5.5-2.8-2.2 0-4.3 0.8-5.5 2-1.1 1.1-2 2.9-2 4zm-2 6c0.5 0 1-0.7 1-1.5 0-0.8-0.5-1.5-1-1.5-0.5 0-1 0.7-1 1.5 0 0.8 0.5 1.5 1 1.5zm18 0c0.5 0 1-0.7 1-1.5 0-0.8-0.5-1.5-1-1.5-0.5 0-1 0.7-1 1.5 0 0.8 0.5 1.5 1 1.5z"/>
</svg>